<?xml version="1.0" standalone="no"?>
<!DOCTYPE svg PUBLIC "-//W3C//DTD SVG 20010904//EN"
 "http://www.w3.org/TR/2001/REC-SVG-20010904/DTD/svg10.dtd">
<svg version="1.0" xmlns="http://www.w3.org/2000/svg"
 width="180.000000pt" height="75.000000pt" viewBox="0 0 180.000000 75.000000"
 preserveAspectRatio="xMidYMid meet">

<g transform="translate(0.000000,75.000000) scale(0.100000,-0.100000)"
fill="#000000" stroke="none">
<path d="M52 724 c-12 -8 -27 -25 -33 -37 -9 -20 -9 -20 9 2 11 13 32 30 48
37 16 7 22 13 14 13 -9 1 -26 -6 -38 -15z"/>
<path d="M1762 701 c13 -15 24 -27 26 -26 6 6 -30 55 -40 55 -5 0 1 -13 14
-29z"/>
<path d="M1078 703 c6 -2 18 -2 25 0 6 3 1 5 -13 5 -14 0 -19 -2 -12 -5z"/>
<path d="M530 690 c-27 -6 -29 -8 -10 -8 14 -1 43 3 65 7 33 7 35 9 10 9 -16
-1 -46 -4 -65 -8z"/>
<path d="M770 684 c-19 -2 -68 -7 -108 -10 -40 -3 -70 -10 -66 -15 3 -5 16 -6
30 -3 15 4 24 2 24 -5 0 -8 6 -9 19 -2 10 6 21 8 24 4 4 -3 13 0 21 6 9 8 60
12 143 13 162 2 266 -4 250 -14 -7 -4 -7 -8 -2 -8 6 0 16 5 23 12 9 9 12 8 12
-4 0 -13 8 -15 43 -11 118 15 18 31 -233 37 -80 2 -161 2 -180 0z"/>
<path d="M1318 673 c7 -3 16 -2 19 1 4 3 -2 6 -13 5 -11 0 -14 -3 -6 -6z"/>
<path d="M418 663 c7 -3 16 -2 19 1 4 3 -2 6 -13 5 -11 0 -14 -3 -6 -6z"/>
<path d="M1390 660 c8 -5 20 -10 25 -10 6 0 3 5 -5 10 -8 5 -19 10 -25 10 -5
0 -3 -5 5 -10z"/>
<path d="M748 653 c7 -3 16 -2 19 1 4 3 -2 6 -13 5 -11 0 -14 -3 -6 -6z"/>
<path d="M801 646 c-10 -12 -8 -13 8 -9 12 3 21 9 21 14 0 14 -16 11 -29 -5z"/>
<path d="M980 652 c0 -4 9 -13 20 -19 16 -11 18 -10 14 1 -6 15 -34 30 -34 18z"/>
<path d="M1040 651 c0 -6 10 -11 23 -11 13 0 28 -4 35 -10 8 -6 7 -5 0 4 -17
19 -58 30 -58 17z"/>
<path d="M1445 650 c-3 -5 -1 -10 4 -10 6 0 11 5 11 10 0 6 -2 10 -4 10 -3 0
-8 -4 -11 -10z"/>
<path d="M320 640 c-18 -12 -2 -12 25 0 13 6 15 9 5 9 -8 0 -22 -4 -30 -9z"/>
<path d="M480 643 c8 -3 17 -8 20 -12 3 -4 19 -4 35 0 21 5 24 7 9 8 -12 0
-34 3 -50 5 -16 2 -22 1 -14 -1z"/>
<path d="M1475 640 c-3 -5 -1 -10 4 -10 6 0 11 5 11 10 0 6 -2 10 -4 10 -3 0
-8 -4 -11 -10z"/>
<path d="M1378 633 c6 -2 18 -2 25 0 6 3 1 5 -13 5 -14 0 -19 -2 -12 -5z"/>
<path d="M358 623 c7 -3 16 -2 19 1 4 3 -2 6 -13 5 -11 0 -14 -3 -6 -6z"/>
<path d="M580 621 c0 -5 9 -7 20 -4 11 3 20 7 20 9 0 2 -9 4 -20 4 -11 0 -20
-4 -20 -9z"/>
<path d="M1276 621 c-4 -5 1 -8 9 -7 21 3 31 16 12 16 -9 0 -18 -4 -21 -9z"/>
<path d="M654 598 l-19 -21 27 17 c15 10 33 14 39 10 8 -4 9 -3 5 4 -11 18
-31 14 -52 -10z"/>
<path d="M770 598 c-12 -22 -12 -22 6 -6 10 10 15 20 12 24 -4 3 -12 -5 -18
-18z"/>
<path d="M1215 610 c27 -12 43 -12 25 0 -8 5 -22 9 -30 9 -10 0 -8 -3 5 -9z"/>
<path d="M1020 601 c0 -5 5 -13 10 -16 6 -3 10 -2 10 4 0 5 -4 13 -10 16 -5 3
-10 2 -10 -4z"/>
<path d="M1143 587 c12 -13 23 -22 25 -21 8 5 -24 44 -35 44 -7 0 -2 -10 10
-23z"/>
<path d="M428 593 c6 -2 18 -2 25 0 6 3 1 5 -13 5 -14 0 -19 -2 -12 -5z"/>
<path d="M520 580 c-13 -8 -12 -10 3 -10 9 0 17 5 17 10 0 12 -1 12 -20 0z"/>
<path d="M1266 576 c3 -9 13 -16 22 -16 8 0 13 1 11 3 -2 1 -12 9 -22 16 -15
12 -17 12 -11 -3z"/>
<path d="M1387 579 c7 -7 15 -10 18 -7 3 3 -2 9 -12 12 -14 6 -15 5 -6 -5z"/>
<path d="M150 560 c-14 -11 -20 -20 -14 -20 6 0 19 9 29 20 23 25 17 25 -15 0z"/>
<path d="M300 530 c0 -5 14 -10 30 -10 l31 0 -4 -54 c-4 -48 -2 -53 15 -49 14
4 18 15 18 54 0 48 1 49 30 49 17 0 30 5 30 10 0 6 -32 10 -75 10 -43 0 -75
-4 -75 -10z"/>
<path d="M490 490 c0 -57 14 -70 79 -70 52 0 71 20 71 76 0 37 -3 44 -19 44
-17 0 -20 -8 -23 -47 -3 -45 -5 -48 -32 -51 -35 -4 -46 10 -46 61 0 26 -4 37
-15 37 -11 0 -15 -12 -15 -50z"/>
<path d="M701 485 c-17 -30 -31 -57 -31 -60 0 -11 28 -4 40 10 7 8 28 15 47
15 21 0 36 -6 39 -15 6 -14 44 -22 44 -10 0 3 -14 30 -31 60 -23 42 -36 55
-54 55 -18 0 -31 -13 -54 -55z m71 -4 c2 -7 -7 -15 -19 -17 -26 -4 -27 -1 -12
28 11 20 25 15 31 -11z"/>
<path d="M880 480 c0 -47 3 -60 15 -60 11 0 15 11 15 40 0 22 4 40 8 40 5 0
23 -18 41 -40 18 -22 41 -40 51 -40 18 0 20 7 20 60 0 47 -3 60 -15 60 -11 0
-15 -11 -15 -40 0 -22 -3 -40 -7 -40 -3 0 -21 18 -40 40 -19 22 -43 40 -54 40
-17 0 -19 -7 -19 -60z"/>
<path d="M1181 486 c-17 -29 -31 -56 -31 -60 0 -12 28 -6 40 9 7 8 28 15 47
15 21 0 36 -6 39 -15 4 -8 15 -15 26 -15 11 0 18 3 16 8 -59 131 -89 143 -137
58z m66 5 c14 -22 8 -31 -20 -31 -13 0 -17 5 -13 16 3 9 6 20 6 25 0 15 15 10
27 -10z"/>
<path d="M1352 483 c2 -44 7 -58 18 -58 10 0 16 12 18 38 2 20 5 37 8 37 2 0
20 -18 40 -40 20 -22 45 -40 55 -40 17 0 19 8 19 60 0 53 -2 60 -20 60 -17 0
-20 -7 -20 -42 l-1 -43 -37 43 c-24 27 -45 42 -60 42 -22 0 -23 -3 -20 -57z"/>
<path d="M115 519 c-4 -6 -5 -12 -2 -15 2 -3 7 2 10 11 7 17 1 20 -8 4z"/>
<path d="M1692 475 c0 -16 2 -22 5 -12 2 9 2 23 0 30 -3 6 -5 -1 -5 -18z"/>
<path d="M101 474 c0 -11 3 -14 6 -6 3 7 2 16 -1 19 -3 4 -6 -2 -5 -13z"/>
<path d="M1669 423 c-13 -16 -12 -17 4 -4 16 13 21 21 13 21 -2 0 -10 -8 -17
-17z"/>
<path d="M131 411 c7 -10 21 -24 33 -31 15 -9 12 -3 -8 19 -34 35 -41 39 -25
12z"/>
<path d="M620 401 c0 -5 7 -15 17 -22 15 -13 15 -12 4 9 -12 23 -21 28 -21 13z"/>
<path d="M386 380 c12 -13 27 -21 33 -19 6 2 -4 12 -22 22 l-32 18 21 -21z"/>
<path d="M500 391 c0 -5 7 -11 15 -15 8 -3 15 -1 15 3 0 5 -7 11 -15 15 -8 3
-15 1 -15 -3z"/>
<path d="M1159 383 c-13 -16 -12 -17 4 -4 16 13 21 21 13 21 -2 0 -10 -8 -17
-17z"/>
<path d="M1280 389 c0 -5 5 -7 10 -4 6 3 10 8 10 11 0 2 -4 4 -10 4 -5 0 -10
-5 -10 -11z"/>
<path d="M1635 390 c-3 -6 1 -7 9 -4 18 7 21 14 7 14 -6 0 -13 -4 -16 -10z"/>
<path d="M1380 370 c0 -5 7 -7 15 -4 8 4 15 8 15 10 0 2 -7 4 -15 4 -8 0 -15
-4 -15 -10z"/>
<path d="M557 349 c11 -12 27 -19 35 -17 9 2 1 10 -20 20 l-36 17 21 -20z"/>
<path d="M760 361 c0 -5 5 -13 10 -16 6 -3 10 -2 10 4 0 5 -4 13 -10 16 -5 3
-10 2 -10 -4z"/>
<path d="M1021 352 c-17 -31 -13 -40 5 -14 9 13 14 26 11 29 -3 2 -10 -4 -16
-15z"/>
<path d="M665 344 c38 -29 61 -36 31 -10 -16 14 -34 26 -40 26 -6 0 -2 -8 9
-16z"/>
<path d="M1114 338 l-19 -21 28 18 c28 18 33 25 19 25 -5 0 -17 -10 -28 -22z"/>
<path d="M320 340 c0 -5 5 -10 10 -10 6 0 10 5 10 10 0 6 -4 10 -10 10 -5 0
-10 -4 -10 -10z"/>
<path d="M1204 334 c-18 -14 -18 -14 6 -3 31 14 36 19 24 19 -6 0 -19 -7 -30
-16z"/>
<path d="M1290 330 l-25 -8 27 -1 c15 -1 30 4 33 9 7 11 0 11 -35 0z"/>
<path d="M493 323 c9 -2 25 -2 35 0 9 3 1 5 -18 5 -19 0 -27 -2 -17 -5z"/>
<path d="M435 310 c3 -5 10 -10 16 -10 5 0 9 5 9 10 0 6 -7 10 -16 10 -8 0
-12 -4 -9 -10z"/>
<path d="M1358 313 c7 -3 16 -2 19 1 4 3 -2 6 -13 5 -11 0 -14 -3 -6 -6z"/>
<path d="M805 300 c3 -5 14 -10 23 -10 15 0 15 2 2 10 -20 13 -33 13 -25 0z"/>
<path d="M975 300 c-16 -7 -17 -9 -3 -9 9 -1 20 4 23 9 7 11 7 11 -20 0z"/>
<path d="M1059 305 c-1 -5 -1 -13 0 -17 2 -13 -17 -9 -22 5 -4 9 -8 9 -15 -2
-13 -18 -217 -20 -234 -3 -15 15 -32 16 -23 2 3 -5 -1 -10 -10 -10 -9 0 -14 4
-11 9 6 8 -123 5 -131 -3 -16 -16 447 -27 512 -12 11 2 31 5 45 6 21 2 19 3
-10 10 -19 5 -46 6 -59 3 -14 -4 -26 0 -32 8 -5 8 -9 10 -10 4z"/>
<path d="M12 280 c2 -15 16 -33 37 -47 l34 -23 813 0 c738 0 817 2 848 17 19
9 37 22 40 29 3 7 -11 2 -31 -12 l-36 -24 -813 0 c-621 0 -819 3 -840 12 -15
7 -33 26 -41 43 -12 27 -13 28 -11 5z"/>
<path d="M1228 263 c6 -2 18 -2 25 0 6 3 1 5 -13 5 -14 0 -19 -2 -12 -5z"/>
<path d="M633 253 c9 -2 23 -2 30 0 6 3 -1 5 -18 5 -16 0 -22 -2 -12 -5z"/>
<path d="M1133 253 c9 -2 23 -2 30 0 6 3 -1 5 -18 5 -16 0 -22 -2 -12 -5z"/>
<path d="M743 243 c15 -2 37 -2 50 0 12 2 0 4 -28 4 -27 0 -38 -2 -22 -4z"/>
<path d="M1003 243 c15 -2 39 -2 55 0 15 2 2 4 -28 4 -30 0 -43 -2 -27 -4z"/>
<path d="M15 149 c-11 -17 1 -21 15 -4 8 9 8 15 2 15 -6 0 -14 -5 -17 -11z"/>
<path d="M58 84 c-3 -68 -2 -74 17 -74 18 0 20 6 17 69 -2 47 -8 71 -17 75
-10 4 -14 -12 -17 -70z"/>
<path d="M110 155 c0 -3 7 -14 16 -23 15 -14 16 -14 13 3 -4 17 -29 35 -29 20z"/>
<path d="M168 97 c6 -89 38 -118 90 -81 19 13 22 24 22 80 0 35 -3 64 -7 64
-5 0 -7 -29 -5 -64 3 -56 1 -66 -16 -75 -39 -21 -52 -5 -52 68 0 57 -3 67 -18
68 -16 1 -18 -5 -14 -60z"/>
<path d="M470 149 c0 -5 8 -17 18 -27 9 -9 36 -42 60 -71 42 -53 42 -53 42
-23 0 21 -12 43 -44 78 -41 44 -76 64 -76 43z"/>
<path d="M580 120 c0 -22 2 -40 4 -40 2 0 6 18 8 40 2 22 0 40 -4 40 -5 0 -8
-18 -8 -40z"/>
<path d="M845 141 c3 -11 20 -35 37 -53 17 -18 37 -43 46 -55 19 -31 30 -29
24 4 -5 24 -26 54 -74 105 -24 24 -41 23 -33 -1z"/>
<path d="M940 151 c0 -6 5 -13 10 -16 6 -3 10 1 10 9 0 9 -4 16 -10 16 -5 0
-10 -4 -10 -9z"/>
<path d="M1065 135 c-44 -43 -25 -113 35 -130 l25 -8 -25 21 c-21 17 -25 29
-24 68 1 33 6 51 19 61 11 7 13 13 6 13 -6 0 -23 -11 -36 -25z"/>
<path d="M1146 137 c11 -12 20 -24 21 -26 2 -2 3 5 3 16 0 13 -8 23 -21 26
-20 5 -20 5 -3 -16z"/>
<path d="M1225 84 c0 -67 2 -74 20 -74 18 0 20 6 17 73 -3 60 -6 73 -20 74
-15 1 -17 -10 -17 -73z"/>
<path d="M1288 149 c17 -18 15 -56 -3 -66 -12 -7 -12 -13 5 -41 12 -20 28 -32
41 -32 l20 0 -20 26 c-23 29 -27 54 -10 54 22 0 4 53 -21 62 -20 7 -23 7 -12
-3z"/>
<path d="M1391 134 c-28 -36 -27 -79 4 -109 49 -50 105 -18 105 59 0 35 -5 48
-22 60 -29 21 -44 20 -23 0 23 -23 17 -113 -8 -128 -15 -9 -21 -7 -33 8 -19
27 -18 95 3 118 9 10 11 18 5 18 -6 0 -20 -12 -31 -26z"/>
<path d="M1539 156 c-2 -3 -2 -33 1 -67 4 -55 8 -65 31 -78 24 -13 29 -13 53
2 24 16 26 22 24 85 l-2 67 -3 -67 c-3 -54 -8 -70 -23 -78 -38 -20 -50 -3 -50
71 0 51 -4 69 -13 69 -8 0 -16 -2 -18 -4z"/>
<path d="M1688 85 c-3 -69 -2 -75 17 -75 18 0 20 7 20 75 0 63 -3 75 -17 75
-14 0 -17 -13 -20 -75z"/>
<path d="M1755 115 c0 -42 1 -43 20 -31 11 7 20 21 20 31 0 10 -9 24 -20 31
-19 12 -20 11 -20 -31z"/>
<path d="M357 130 c-3 -11 -2 -20 2 -20 8 0 36 -79 33 -92 -1 -5 10 -8 24 -8
20 0 24 3 17 13 -5 6 -20 38 -33 70 -24 60 -34 70 -43 37z"/>
<path d="M727 135 c-4 -8 0 -27 8 -41 8 -15 12 -31 9 -36 -3 -4 0 -8 5 -8 6 0
11 -9 11 -20 0 -14 7 -20 21 -20 11 0 19 3 17 8 -1 4 -14 35 -28 70 -26 64
-34 73 -43 47z"/>
<path d="M479 58 c-3 -30 0 -48 6 -48 7 0 9 15 7 38 -6 58 -9 61 -13 10z"/>
<path d="M330 60 c0 -5 5 -10 11 -10 5 0 7 5 4 10 -3 6 -8 10 -11 10 -2 0 -4
-4 -4 -10z"/>
<path d="M692 45 c-15 -32 -15 -35 0 -35 6 0 8 3 5 6 -3 4 -2 15 4 26 6 11 9
22 6 24 -2 2 -9 -7 -15 -21z"/>
<path d="M1140 40 c0 -20 5 -30 15 -30 8 0 15 6 15 14 0 8 3 21 6 30 4 12 0
16 -15 16 -17 0 -21 -6 -21 -30z"/>
<path d="M316 25 c-3 -8 -1 -15 4 -15 6 0 10 7 10 15 0 8 -2 15 -4 15 -2 0 -6
-7 -10 -15z"/>
<path d="M840 20 c0 -5 5 -10 11 -10 5 0 7 5 4 10 -3 6 -8 10 -11 10 -2 0 -4
-4 -4 -10z"/>
</g>
</svg>
